<svg xmlns="http://www.w3.org/2000/svg" xmlns:xlink="http://www.w3.org/1999/xlink" width="312" zoomAndPan="magnify" viewBox="0 0 234 210.749996" height="281" preserveAspectRatio="xMidYMid meet" version="1.0"><defs><filter x="0%" y="0%" width="100%" height="100%" id="ba8bd019df"><feColorMatrix values="0 0 0 0 1 0 0 0 0 1 0 0 0 0 1 0 0 0 1 0" color-interpolation-filters="sRGB"/></filter><clipPath id="6ca4f864d4"><path d="M 0.136719 0 L 233.164062 0 L 233.164062 210.050781 L 0.136719 210.050781 Z M 0.136719 0 " clip-rule="nonzero"/></clipPath><clipPath id="ba18d8f5bb"><path d="M 27.105469 0 L 206.179688 0 C 221.074219 0 233.148438 12.074219 233.148438 26.96875 L 233.148438 183.082031 C 233.148438 197.976562 221.074219 210.050781 206.179688 210.050781 L 27.105469 210.050781 C 12.210938 210.050781 0.136719 197.976562 0.136719 183.082031 L 0.136719 26.96875 C 0.136719 12.074219 12.210938 0 27.105469 0 Z M 27.105469 0 " clip-rule="nonzero"/></clipPath><clipPath id="0edcadc922"><path d="M 101 55 L 231 55 L 231 210.5 L 101 210.5 Z M 101 55 " clip-rule="nonzero"/></clipPath><mask id="75992557c5"><g filter="url(#ba8bd019df)"><rect x="-23.4" width="280.8" fill="#000000" y="-21.075" height="252.899995" fill-opacity="0.27"/></g></mask><clipPath id="0677ec8c42"><path d="M 0.769531 113 L 70 113 L 70 154.902344 L 0.769531 154.902344 Z M 0.769531 113 " clip-rule="nonzero"/></clipPath><clipPath id="9b3f0fd94d"><path d="M 33 0.585938 L 115 0.585938 L 115 91 L 33 91 Z M 33 0.585938 " clip-rule="nonzero"/></clipPath><clipPath id="78fe64ea95"><path d="M 33 30 L 128.871094 30 L 128.871094 154.902344 L 33 154.902344 Z M 33 30 " clip-rule="nonzero"/></clipPath><clipPath id="8e325bf9a5"><rect x="0" width="130" y="0" height="156"/></clipPath></defs><g clip-path="url(#6ca4f864d4)"><g clip-path="url(#ba18d8f5bb)"><path fill="#e8c1d4" d="M 0.136719 0 L 233.164062 0 L 233.164062 210.050781 L 0.136719 210.050781 Z M 0.136719 0 " fill-opacity="1" fill-rule="nonzero"/></g></g><g clip-path="url(#0edcadc922)"><g mask="url(#75992557c5)"><g transform="matrix(1, 0, 0, 1, 101, 55)"><g clip-path="url(#8e325bf9a5)"><g clip-path="url(#0677ec8c42)"><path fill="#000000" d="M 36.054688 169.003906 C 14.734375 169.003906 1.863281 152.34375 1.324219 151.644531 C 0.855469 151.019531 0.675781 150.234375 0.824219 149.484375 C 0.972656 148.71875 1.4375 148.0625 2.097656 147.667969 C 19.375 137.4375 35.535156 125.988281 50.132812 113.644531 C 51.277344 112.671875 52.984375 112.820312 53.957031 113.964844 C 54.921875 115.109375 54.785156 116.828125 53.628906 117.792969 C 39.605469 129.65625 24.15625 140.703125 7.695312 150.648438 C 11.710938 154.792969 21.453125 163.140625 35.003906 163.550781 C 38.226562 160.542969 50.925781 148.519531 64.835938 133.367188 C 65.855469 132.265625 67.558594 132.199219 68.671875 133.207031 C 69.765625 134.214844 69.851562 135.941406 68.832031 137.046875 C 52.632812 154.6875 38.035156 168.152344 37.886719 168.28125 C 37.390625 168.746094 36.730469 169.003906 36.054688 169.003906 " fill-opacity="1" fill-rule="nonzero"/></g><path fill="#000000" d="M 95.027344 103.636719 C 94.488281 103.636719 93.949219 103.476562 93.46875 103.140625 C 92.242188 102.269531 91.953125 100.582031 92.8125 99.363281 C 103.773438 83.863281 109.332031 71.679688 109.332031 63.144531 L 109.332031 33.289062 C 109.332031 31.792969 110.550781 30.574219 112.042969 30.574219 C 113.539062 30.574219 114.757812 31.792969 114.757812 33.289062 L 114.757812 63.144531 C 114.757812 72.824219 108.863281 86.058594 97.246094 102.492188 C 96.726562 103.246094 95.875 103.636719 95.027344 103.636719 " fill-opacity="1" fill-rule="nonzero"/><g clip-path="url(#9b3f0fd94d)"><path fill="#000000" d="M 81.195312 90.078125 C 80.546875 90.078125 79.902344 89.855469 79.390625 89.386719 C 78.269531 88.390625 78.171875 86.671875 79.167969 85.558594 C 101.433594 60.632812 109.332031 41.824219 109.332031 33.289062 C 109.332031 18.316406 93.503906 6.148438 74.046875 6.148438 C 54.59375 6.148438 38.765625 18.316406 38.765625 33.289062 C 38.765625 34.785156 37.546875 36.003906 36.054688 36.003906 C 34.558594 36.003906 33.339844 34.785156 33.339844 33.289062 C 33.339844 15.328125 51.59375 0.71875 74.046875 0.71875 C 96.503906 0.71875 114.757812 15.328125 114.757812 33.289062 C 114.757812 45.980469 102.671875 67.398438 83.21875 89.175781 C 82.679688 89.769531 81.9375 90.078125 81.195312 90.078125 " fill-opacity="1" fill-rule="nonzero"/></g><g clip-path="url(#78fe64ea95)"><path fill="#000000" d="M 38.765625 52.046875 L 38.765625 63.144531 C 38.765625 73.070312 46.601562 88.453125 61.402344 107.632812 C 65.78125 113.296875 70.71875 119.265625 76.09375 125.382812 C 92.613281 144.191406 109.320312 160.03125 113.09375 163.550781 C 126.640625 163.140625 136.386719 154.792969 140.414062 150.648438 C 120.917969 138.878906 102.96875 125.648438 87.023438 111.304688 C 81.808594 106.628906 76.792969 101.78125 72.097656 96.925781 C 56.894531 81.234375 45.171875 65.257812 38.765625 52.046875 Z M 112.042969 169.003906 C 111.367188 169.003906 110.707031 168.746094 110.210938 168.28125 C 110.019531 168.113281 90.882812 150.457031 72.011719 128.964844 C 66.5625 122.765625 61.550781 116.699219 57.109375 110.941406 C 41.332031 90.523438 33.339844 74.4375 33.339844 63.144531 L 33.339844 33.289062 C 33.339844 31.792969 34.558594 30.574219 36.054688 30.574219 C 37.546875 30.574219 38.765625 31.792969 38.765625 33.289062 C 38.765625 43.945312 50.28125 66.59375 76 93.152344 C 80.601562 97.921875 85.53125 102.671875 90.652344 107.273438 C 107.105469 122.066406 125.71875 135.65625 146 147.667969 C 146.65625 148.0625 147.125 148.71875 147.273438 149.484375 C 147.421875 150.234375 147.242188 151.019531 146.773438 151.644531 C 146.234375 152.34375 133.363281 169.003906 112.042969 169.003906 " fill-opacity="1" fill-rule="nonzero"/></g><path fill="#000000" d="M 101.1875 38.71875 C 100.46875 38.71875 99.746094 38.429688 99.214844 37.871094 C 99.121094 37.773438 89.472656 27.859375 74.046875 27.859375 C 58.527344 27.859375 48.976562 37.773438 48.878906 37.871094 C 47.851562 38.960938 46.136719 39.003906 45.042969 37.976562 C 43.949219 36.945312 43.910156 35.230469 44.9375 34.136719 C 45.394531 33.660156 56.207031 22.433594 74.046875 22.433594 C 91.890625 22.433594 102.703125 33.660156 103.160156 34.136719 C 104.1875 35.230469 104.144531 36.945312 103.054688 37.976562 C 102.523438 38.472656 101.855469 38.71875 101.1875 38.71875 " fill-opacity="1" fill-rule="nonzero"/></g></g></g></g></svg>